<svg height="512pt" viewBox="0 0 512 512" width="512pt" xmlns="http://www.w3.org/2000/svg"><path d="m486.398438 51.199219h-170.664063v-42.664063c0-4.714844-3.820313-8.535156-8.535156-8.535156h-102.398438c-4.714843 0-8.535156 3.820312-8.535156 8.535156v42.664063h-170.664063c-14.140624 0-25.601562 11.460937-25.601562 25.601562v409.597657c0 14.140624 11.460938 25.601562 25.601562 25.601562h460.796876c14.140624 0 25.601562-11.460938 25.601562-25.601562v-409.597657c0-14.140625-11.460938-25.601562-25.601562-25.601562zm-469.332032 29.132812 51.199219 51.199219v300.136719l-51.199219 51.199219zm409.601563 346.335938h-68.269531v-59.734375c-.023438-.46875-.085938-.933594-.1875-1.390625 0-.214844 0-.417969-.085938-.632813-.234375-.910156-.617188-1.773437-1.132812-2.558594-.128907-.195312-.289063-.359374-.425782-.546874-.511718-.65625-1.113281-1.230469-1.792968-1.707032-.128907-.09375-.1875-.230468-.324219-.316406l-89.914063-57.265625v-29.015625c1.988282-1.125 3.730469-2.644531 5.117188-4.460938l18.773437-24.984374c1.109375-1.476563 1.707031-3.273438 1.707031-5.121094v-17.066406h25.601563c14.136719 0 25.597656-11.460938 25.597656-25.601563 0-14.136719-11.460937-25.597656-25.597656-25.597656v-34.132813h110.933594zm-221.867188-238.933594h110.933594c4.710937 0 8.53125 3.820313 8.53125 8.53125 0 4.714844-3.820313 8.535156-8.53125 8.535156h-119.46875c-4.710937 0-8.53125-3.820312-8.53125-8.535156 0-4.710937 3.820313-8.53125 8.53125-8.53125zm34.132813 34.132813h34.132812v14.222656l-17.066406 22.75-17.066406-22.75zm17.066406 95.453124 77.96875 49.613282-77.96875 49.613281-77.96875-49.613281zm-85.332031 65.160157 76.796875 48.871093v56.566407l-76.796875-48.871094zm93.867187 48.871093 76.796875-48.871093v56.566406l-76.796875 48.871094zm34.132813-328.953124h-17.066407c-4.714843 0-8.535156 3.820312-8.535156 8.535156 0 4.710937 3.820313 8.53125 8.535156 8.53125h17.066407v17.070312h-17.066407c-4.714843 0-8.535156 3.820313-8.535156 8.53125 0 4.714844 3.820313 8.535156 8.535156 8.535156h17.066407v17.066407h-85.335938v-17.066407h17.066407c4.714843 0 8.535156-3.820312 8.535156-8.535156 0-4.710937-3.820313-8.53125-8.535156-8.53125h-17.066407v-17.070312h17.066407c4.714843 0 8.535156-3.820313 8.535156-8.53125 0-4.714844-3.820313-8.535156-8.535156-8.535156h-17.066407v-51.199219h85.335938zm-102.402344 68.269531c-14.136719 0-25.597656 11.460937-25.597656 25.597656 0 14.140625 11.460937 25.601563 25.597656 25.601563h25.601563v17.066406c0 1.847656.597656 3.644531 1.707031 5.121094l18.773437 25.019531c1.386719 1.816406 3.128906 3.335937 5.117188 4.460937v29.015625l-89.914063 57.171875c-.136719.085938-.195312.222656-.324219.316406-.679687.476563-1.28125 1.050782-1.792968 1.707032-.136719.1875-.296875.347656-.425782.546875-.515624.785156-.898437 1.648437-1.132812 2.558593-.054688.214844-.054688.417969-.085938.632813-.105468.476563-.167968.960937-.1875 1.449219v59.734375h-68.269531v-290.132813h110.933594zm-115.933594 273.066406h73.269531c-.003906 2.917969 1.488282 5.632813 3.949219 7.199219l69.144531 44h-197.5625zm274.117188 7.199219c2.460937-1.566406 3.953125-4.28125 3.949219-7.199219h73.269531l51.199219 51.199219h-197.5625zm89.285156-19.265625v-300.136719l51.199219-51.199219v402.535157zm39.132813-363.402344-51.199219 51.199219h-115.933594v-17.066406h102.398437c4.714844 0 8.535157-3.820313 8.535157-8.53125 0-4.714844-3.820313-8.535157-8.535157-8.535157h-102.398437v-17.066406zm-184.199219-51.199219v17.066406h-85.335938v-17.066406zm-102.402344 68.265625h-102.398437c-4.714844 0-8.535157 3.820313-8.535157 8.535157 0 4.710937 3.820313 8.53125 8.535157 8.53125h102.398437v17.066406h-115.933594l-51.199219-51.199219h167.132813zm0 0"/></svg>