<svg height="464pt" viewBox="0 0 464 464" width="464pt" xmlns="http://www.w3.org/2000/svg"><path d="m272.761719 331.007812 5.09375 25.480469 85.578125-39.496093-52.839844-31.703126c-4.386719 20.671876-18.761719 37.6875-37.832031 45.71875zm0 0"/><path d="m317.703125 400h98.296875v-43.6875zm0 0"/><path d="m260.945312 432h182.109376l-8-16h-166.109376zm0 0"/><path d="m237.878906 152-19.839844 63.488281c8.945313-4.761719 19.136719-7.488281 29.960938-7.488281 23.832031 0 44.625 13.121094 55.640625 32.488281l22.121094-88.488281zm0 0"/><path d="m408 136h16v16h-16zm0 0"/><path d="m408 32h16v24h-16zm0 0"/><path d="m427.054688 16 8-16h-38.109376l8 16zm0 0"/><path d="m396.945312 184h38.109376l-8-16h-22.109376zm0 0"/><path d="m285.878906 396.632812 120.800782-53.6875-27.792969-16.679687.464843 1.007813-98.273437 45.351562zm0 0"/><path d="m320 96c0 4.417969-3.582031 8-8 8s-8-3.582031-8-8 3.582031-8 8-8 8 3.582031 8 8zm0 0"/><path d="m216 136h128c8.824219 0 16-7.175781 16-16v-48c0-8.824219-7.175781-16-16-16h-128c-8.824219 0-16 7.175781-16 16v48c0 8.824219 7.175781 16 16 16zm96-64c13.230469 0 24 10.769531 24 24s-10.769531 24-24 24-24-10.769531-24-24 10.769531-24 24-24zm-64 0c13.230469 0 24 10.769531 24 24s-10.769531 24-24 24-24-10.769531-24-24 10.769531-24 24-24zm0 0"/><path d="m296 272c0-26.472656-21.527344-48-48-48s-48 21.527344-48 48 21.527344 48 48 48 48-21.527344 48-48zm-72 8v-16h16v-16h16v16h16v16h-16v16h-16v-16zm0 0"/><path d="m240 448h224v16h-224zm0 0"/><path d="m376 104h88v16h-88zm0 0"/><path d="m88 88v16h96v-16zm0 0"/><path d="m376 72h88v16h-88zm0 0"/><path d="m256 96c0 4.417969-3.582031 8-8 8s-8-3.582031-8-8 3.582031-8 8-8 8 3.582031 8 8zm0 0"/><path d="m112 384c0 17.671875-14.328125 32-32 32s-32-14.328125-32-32 14.328125-32 32-32 32 14.328125 32 32zm0 0"/><path d="m141.976562 368.3125c-1.511718-6.007812-3.886718-11.746094-7.066406-17.046875l-2.910156-4.867187 10.710938-12.832032-12.277344-12.277344-12.832032 10.710938-4.867187-2.910156c-5.300781-3.167969-11.039063-5.546875-17.046875-7.066406l-5.503906-1.390626-1.496094-16.632812h-17.375l-1.496094 16.632812-5.503906 1.390626c-6.007812 1.511718-11.746094 3.886718-17.046875 7.066406l-4.867187 2.910156-12.832032-10.710938-12.277344 12.277344 10.710938 12.832032-2.910156 4.867187c-3.167969 5.300781-5.546875 11.039063-7.066406 17.046875l-1.390626 5.503906-16.632812 1.496094v17.375l16.632812 1.496094 1.390626 5.503906c1.511718 6.007812 3.886718 11.746094 7.066406 17.046875l2.910156 4.867187-10.710938 12.832032 12.277344 12.277344 12.832032-10.710938 4.867187 2.910156c5.300781 3.167969 11.039063 5.546875 17.046875 7.066406l5.503906 1.390626 1.496094 16.632812h17.375l1.496094-16.632812 5.503906-1.390626c6.007812-1.511718 11.746094-3.886718 17.046875-7.066406l4.867187-2.910156 12.832032 10.710938 12.277344-12.277344-10.710938-12.832032 2.910156-4.867187c3.167969-5.300781 5.546875-11.039063 7.066406-17.046875l1.390626-5.503906 16.632812-1.496094v-17.375l-16.632812-1.496094zm-61.976562 63.6875c-26.472656 0-48-21.527344-48-48s21.527344-48 48-48 48 21.527344 48 48-21.527344 48-48 48zm0 0"/><path d="m72 208h16v16h-16zm0 0"/><path d="m72 240h16v16h-16zm0 0"/><path d="m72 272h16v16h-16zm0 0"/><path d="m128 40h-96c-17.671875 0-32 14.328125-32 32h128zm0 0"/><path d="m32 152h96v-32h-128c0 17.671875 14.328125 32 32 32zm0 0"/></svg>