<svg height="511pt" viewBox="0 0 511.99983 511" width="511pt" xmlns="http://www.w3.org/2000/svg"><path d="m191.734375 64.765625c-70.285156 0-127.46875 57.183594-127.46875 127.46875s57.183594 127.464844 127.46875 127.464844 127.464844-57.179688 127.464844-127.464844c0-70.289063-57.179688-127.46875-127.464844-127.46875zm0 224.933594c-53.746094 0-97.46875-43.722657-97.46875-97.464844 0-53.746094 43.722656-97.46875 97.46875-97.46875 53.742187 0 97.464844 43.722656 97.464844 97.46875 0 53.742187-43.722657 97.464844-97.464844 97.464844zm0 0"/><path d="m498.90625 430.136719-141.496094-141.5c16.554688-28.339844 26.054688-61.28125 26.054688-96.402344.003906-105.722656-86.011719-191.734375-191.730469-191.734375-105.722656 0-191.734375 86.011719-191.734375 191.734375 0 105.71875 86.011719 191.730469 191.734375 191.730469 35.046875 0 67.925781-9.460938 96.226563-25.949219l141.535156 141.53125c20.316406 20.316406 50.917968 14.480469 67.390625-2.011719 10.722656-10.707031 26.804687-42.617187 2.019531-67.398437zm-307.171875-76.167969c-89.179687 0-161.734375-72.554688-161.734375-161.734375 0-89.183594 72.554688-161.734375 161.734375-161.734375 89.175781 0 161.730469 72.554688 161.730469 161.734375s-72.550782 161.734375-161.730469 161.734375zm283.941406 122.355469c-6.460937 6.46875-18.015625 8.960937-24.96875 2.011719l-137.703125-137.707032c9.863282-8.074218 18.914063-17.113281 27-26.972656l137.691406 137.691406c6.898438 6.898438 4.53125 18.433594-2.019531 24.976563zm0 0"/><path d="m239.933594 177.234375h-33.199219v-33.203125c0-8.28125-6.714844-15-15-15s-15 6.71875-15 15v33.203125h-33.199219c-8.285156 0-15 6.714844-15 15 0 8.28125 6.714844 15 15 15h33.199219v33.199219c0 8.285156 6.714844 15 15 15s15-6.714844 15-15v-33.199219h33.199219c8.285156 0 15-6.71875 15-15 0-8.285156-6.714844-15-15-15zm0 0"/></svg>