<?xml version="1.0" encoding="UTF-8"?>
<!DOCTYPE svg PUBLIC "-//W3C//DTD SVG 1.1//EN" "http://www.w3.org/Graphics/SVG/1.1/DTD/svg11.dtd">
<!-- Creator: CorelDRAW 2017 -->
<svg xmlns="http://www.w3.org/2000/svg" xml:space="preserve" width="209.994mm" height="159.722mm" version="1.1" style="shape-rendering:geometricPrecision; text-rendering:geometricPrecision; image-rendering:optimizeQuality; fill-rule:evenodd; clip-rule:evenodd"
viewBox="0 0 13373 10171"
 xmlns:xlink="http://www.w3.org/1999/xlink">
 <defs>
  <style type="text/css">
   <![CDATA[
    .str0 {stroke:#E6E7E8;stroke-width:25.4727}
    .fil1 {fill:none}
    .fil0 {fill:#E6E7E8}
   ]]>
  </style>
   <clipPath id="id0">
    <path d="M13373 0l0 10171 -13373 0 0 -10171 13373 0z"/>
   </clipPath>
 </defs>
 <g id="Слой_x0020_1">
  <metadata id="CorelCorpID_0Corel-Layer"/>
  <g>
  </g>
  <g style="clip-path:url(#id0)">
   <g>
    <circle class="fil0 str0" cx="5592" cy="289" r="239"/>
    <circle class="fil0 str0" cx="6453" cy="885" r="208"/>
    <circle class="fil0 str0" cx="7111" cy="1321" r="156"/>
    <circle class="fil0 str0" cx="8433" cy="2207" r="156"/>
    <circle class="fil0 str0" cx="8238" cy="2173" r="186"/>
    <circle class="fil0 str0" cx="7887" cy="2315" r="142"/>
    <circle class="fil0 str0" cx="6313" cy="2285" r="142"/>
    <circle class="fil0 str0" cx="5248" cy="2184" r="210"/>
    <circle class="fil0 str0" cx="6181" cy="2830" r="157"/>
    <circle class="fil0 str0" cx="3755" cy="1779" r="196"/>
    <circle class="fil0 str0" cx="3137" cy="1962" r="196"/>
    <circle class="fil0 str0" cx="2125" cy="2150" r="225"/>
    <circle class="fil0 str0" cx="2037" cy="2956" r="186"/>
    <circle class="fil0 str0" cx="4362" cy="3782" r="161"/>
    <circle class="fil0 str0" cx="2749" cy="4294" r="161"/>
    <circle class="fil0 str0" cx="1063" cy="4758" r="202"/>
    <circle class="fil0 str0" cx="1855" cy="5180" r="149"/>
    <circle class="fil0 str0" cx="353" cy="5598" r="229"/>
    <circle class="fil0 str0" cx="1663" cy="6555" r="202"/>
    <circle class="fil0 str0" cx="2884" cy="6703" r="108"/>
    <circle class="fil0 str0" cx="2884" cy="6703" r="108"/>
    <circle class="fil0 str0" cx="4810" cy="5824" r="156"/>
    <circle class="fil0 str0" cx="4902" cy="7290" r="156"/>
    <circle class="fil0 str0" cx="3596" cy="7830" r="156"/>
    <circle class="fil0 str0" cx="2461" cy="7753" r="156"/>
    <circle class="fil0 str0" cx="1046" cy="8400" r="209"/>
    <circle class="fil0 str0" cx="938" cy="9411" r="209"/>
    <circle class="fil0 str0" cx="2572" cy="9654" r="209"/>
    <circle class="fil0 str0" cx="4135" cy="9540" r="160"/>
    <circle class="fil0 str0" cx="6060" cy="9312" r="160"/>
    <circle class="fil0 str0" cx="9094" cy="7589" r="160"/>
    <circle class="fil0 str0" cx="7443" cy="6821" r="160"/>
    <circle class="fil0 str0" cx="8323" cy="5558" r="160"/>
    <circle class="fil0 str0" cx="6048" cy="4588" r="160"/>
    <circle class="fil0 str0" cx="9714" cy="4301" r="160"/>
    <circle class="fil0 str0" cx="9247" cy="3614" r="160"/>
    <circle class="fil0 str0" cx="10515" cy="3921" r="196"/>
    <circle class="fil0 str0" cx="11648" cy="3559" r="196"/>
    <circle class="fil0 str0" cx="12349" cy="3673" r="241"/>
    <circle class="fil0 str0" cx="11975" cy="4825" r="199"/>
    <circle class="fil0 str0" cx="12066" cy="4969" r="157"/>
    <circle class="fil0 str0" cx="10746" cy="6074" r="157"/>
    <circle class="fil0 str0" cx="11676" cy="6356" r="194"/>
    <circle class="fil0 str0" cx="12349" cy="6757" r="194"/>
    <circle class="fil0 str0" cx="13021" cy="7620" r="229"/>
    <circle class="fil0 str0" cx="12001" cy="8372" r="202"/>
    <circle class="fil0 str0" cx="11883" cy="8648" r="145"/>
    <circle class="fil0 str0" cx="8972" cy="9723" r="145"/>
    <circle class="fil0 str0" cx="8553" cy="1047" r="199"/>
    <circle class="fil0 str0" cx="9564" cy="904" r="246"/>
    <circle class="fil0 str0" cx="9429" cy="1460" r="118"/>
    <circle class="fil0 str0" cx="9857" cy="1928" r="215"/>
    <path class="fil1 str0" d="M5592 289l-3466 1862m0 0l1011 -189m0 0l619 -183m0 0l2698 -895m0 0l-861 -596"/>
    <polyline class="fil1 str0" points="2125,2150 353,5598 938,9411 1833,10043 "/>
    <line class="fil1 str0" x1="938" y1="9411" x2="1557" y2= "10236" />
    <line class="fil1 str0" x1="2572" y1="9654" x2="1901" y2= "10354" />
    <polyline class="fil1 str0" points="2419,10319 1046,8400 938,9411 "/>
    <polyline class="fil1 str0" points="1063,4758 1046,8400 1663,6555 353,5598 "/>
    <polyline class="fil1 str0" points="1063,4758 1663,6555 1855,5180 "/>
    <polyline class="fil1 str0" points="1663,6555 2461,7753 2572,9654 "/>
    <polyline class="fil1 str0" points="1046,8400 2461,7753 3596,7830 4135,9540 2572,9654 "/>
    <polyline class="fil1 str0" points="4135,9540 6060,9312 4902,7290 2884,6703 1663,6555 "/>
    <polyline class="fil1 str0" points="2461,7753 2884,6703 2749,4294 1855,5180 1063,4758 353,5598 "/>
    <polyline class="fil1 str0" points="1063,4758 3137,1962 2037,2956 2749,4294 4362,3782 3755,1779 6181,2830 6313,2285 7111,1321 6453,885 "/>
    <polyline class="fil1 str0" points="3137,1962 5248,2184 3722,1789 6313,2285 7887,2315 8238,2173 8433,2207 7111,1321 7887,2315 9247,3614 9714,4301 10746,6074 11676,6356 12349,6757 13021,7620 12349,3673 9564,904 5592,289 "/>
    <polyline class="fil1 str0" points="9564,904 8553,1047 7111,1321 5248,2184 "/>
    <polyline class="fil1 str0" points="6453,885 9857,1928 9429,1460 8553,1047 "/>
    <polyline class="fil1 str0" points="9857,1928 11648,3559 10515,3921 9714,4301 8323,5558 7443,6821 4810,5824 2749,4294 "/>
    <path class="fil1 str0" d="M1855 5180l182 -2224m0 0l2325 825m0 0l448 2042m0 0l-1928 880m0 0l-1027 -1523"/>
    <polyline class="fil1 str0" points="1855,5180 2463,7787 4135,9540 4902,7290 3596,7830 2884,6703 "/>
    <polyline class="fil1 str0" points="4810,5824 4902,7290 7443,6821 6060,9312 5849,10285 "/>
    <polyline class="fil1 str0" points="6457,10091 6060,9312 9094,7589 8972,9723 6060,9312 "/>
    <polyline class="fil1 str0" points="8972,9723 11883,8648 12001,8372 12066,4969 11975,4825 9714,4301 "/>
    <polyline class="fil1 str0" points="9429,1460 11975,4825 11648,3559 9564,904 "/>
    <line class="fil1 str0" x1="12349" y1="3673" x2="9857" y2= "1928" />
    <polyline class="fil1 str0" points="11648,3559 9247,3614 9857,1928 "/>
    <line class="fil1 str0" x1="8433" y1="2207" x2="9247" y2= "3614" />
    <polyline class="fil1 str0" points="4810,5824 6048,4588 4362,3782 6181,2830 7887,2315 9247,3614 8323,5558 6048,4588 9247,3614 "/>
    <polyline class="fil1 str0" points="6181,2830 6048,4588 7887,2315 "/>
    <polyline class="fil1 str0" points="8433,2207 9429,1460 9564,904 "/>
    <polyline class="fil1 str0" points="12066,4969 10746,6074 9094,7589 7443,6821 6048,4588 "/>
    <path class="fil1 str0" d="M10746 6074l-2423 -515m0 0l771 2030m0 0l2789 1060m0 0l-1138 -2575"/>
    <polyline class="fil1 str0" points="10784,10084 11883,8648 11115,10278 "/>
    <line class="fil1 str0" x1="11883" y1="8648" x2="11426" y2= "10422" />
    <polyline class="fil1 str0" points="11591,10368 13021,7620 12001,8372 12349,6757 12066,4969 "/>
    <polyline class="fil1 str0" points="11982,4836 12349,3673 12349,6757 "/>
   </g>
  </g>
  <polygon class="fil1" points="13373,0 13373,10171 0,10171 0,0 "/>
 </g>
</svg>
