<svg height="512pt" viewBox="0 0 512.00002 512" width="512pt" xmlns="http://www.w3.org/2000/svg"><path d="m512 226.148438c0-60.40625-23.523438-117.199219-66.238281-159.910157-42.710938-42.714843-99.503907-66.238281-159.910157-66.238281s-117.199218 23.523438-159.914062 66.238281c-10.003906 10.003907-19.015625 20.9375-26.964844 32.609375-6.289062-3.84375-13.488281-6.160156-21.289062-6.726562-15.027344-1.085938-28.8125 4.519531-38.816406 15.78125-54.171876 61.003906-51.398438 154.003906 6.320312 211.71875l147.191406 147.191406c30.03125 30.03125 69.609375 45.1875 109.269532 45.1875 36.558593 0 73.1875-12.882812 102.449218-38.871094 11.261719-10 16.867188-23.785156 15.777344-38.8125-.5625-7.796875-2.875-14.992187-6.714844-21.277344 11.671875-7.953124 22.601563-16.980468 32.601563-26.980468 42.714843-42.710938 66.238281-99.503906 66.238281-159.910156zm-127.820312 224.554687c-49.152344 43.644531-124.082032 41.40625-170.589844-5.101563l-147.191406-147.191406c-46.507813-46.507812-48.746094-121.4375-5.101563-170.589844 3.480469-3.917968 7.644531-5.835937 12.695313-5.835937.5 0 1.007812.019531 1.523437.058594 5.742187.414062 10.074219 2.957031 13.234375 7.769531l45.796875 69.691406c4.191406 6.375 3.863281 14.3125-.835937 20.21875-19.800782 24.886719-17.777344 60.609375 4.710937 83.097656l70.757813 70.757813c22.488281 22.488281 58.210937 24.511719 83.097656 4.710937 5.90625-4.699218 13.84375-5.027343 20.222656-.835937l69.6875 45.792969c4.8125 3.164062 7.355469 7.496094 7.769531 13.238281.417969 5.742187-1.472656 10.394531-5.777343 14.21875zm5.726562-58.277344-60.933594-40.039062c-17.140625-11.265625-39.390625-10.289063-55.371094 2.429687-12.941406 10.296875-31.515624 9.246094-43.210937-2.449218l-70.757813-70.757813c-11.691406-11.695313-12.746093-30.269531-2.449218-43.210937 12.71875-15.980469 13.695312-38.230469 2.433594-55.371094l-40.03125-60.914063c7.851562-12.546875 17.085937-24.1875 27.566406-34.664062 76.476562-76.480469 200.917968-76.480469 277.398437 0 76.480469 76.476562 76.480469 200.921875 0 277.398437-10.46875 10.472656-22.105469 19.726563-34.644531 27.578125zm0 0"/><path d="m411.011719 184.980469h-12v-15c0-8.285157-6.714844-15-15-15-8.28125 0-14.996094 6.714843-14.996094 15v15h-17.996094v-45.996094c0-8.285156-6.714843-15-15-15-8.28125 0-14.996093 6.714844-14.996093 15v60.992187c0 8.285157 6.714843 15 14.996093 15h32.996094v39.992188c0 8.285156 6.714844 15 14.996094 15 8.285156 0 15-6.714844 15-15v-39.992188h12c8.285156 0 15-6.714843 15-15 0-8.28125-6.714844-14.996093-15-14.996093zm0 0"/><path d="m294.027344 239.972656h-35.976563c22.683594-22.042968 40.976563-45.351562 40.976563-67.320312 0-24.183594-15.972656-48.667969-46.496094-48.667969-12.824219 0-24.625 4.640625-33.230469 13.0625-8.554687 8.375-13.261719 19.714844-13.261719 31.933594 0 8.28125 6.714844 14.996093 14.996094 14.996093 8.285156 0 15-6.714843 15-14.996093 0-8.832031 6.78125-15 16.496094-15 15.308594 0 16.5 14.292969 16.5 18.671875 0 3.433594-1.949219 13.574218-19.988281 33.574218-12.652344 14.027344-39.789063 37.378907-39.789063 37.378907-4.753906 4.089843-6.460937 10.707031-4.28125 16.585937 2.183594 5.878906 7.792969 9.78125 14.0625 9.78125h74.992188c8.28125 0 14.996094-6.71875 14.996094-15s-6.714844-15-14.996094-15zm0 0"/></svg>