<svg height="512pt" viewBox="0 0 512 512" width="512pt" xmlns="http://www.w3.org/2000/svg"><path d="m210.285156 0h91.429688v18.285156h-91.429688zm0 0"/><path d="m301.714844 146.285156h-18.285156c-5.050782 0-9.144532-4.09375-9.144532-9.140625 0-5.050781 4.09375-9.144531 9.144532-9.144531h18.285156v-18.285156h-18.285156c-5.050782 0-9.144532-4.09375-9.144532-9.144532 0-5.046874 4.09375-9.140624 9.144532-9.140624h18.285156v-54.859376h-91.429688v54.859376h18.285156c5.050782 0 9.144532 4.09375 9.144532 9.140624 0 5.050782-4.09375 9.144532-9.144532 9.144532h-18.285156v18.285156h18.285156c5.050782 0 9.144532 4.09375 9.144532 9.144531 0 5.046875-4.09375 9.140625-9.144532 9.140625h-18.285156v18.285156h91.429688zm0 0"/><path d="m274.285156 234.667969v-15.238281h-36.570312v15.238281l18.285156 24.375zm0 0"/><path d="m499.070312 54.855469h-179.070312v18.289062h109.714844c5.050781 0 9.140625 4.089844 9.140625 9.140625 0 5.050782-4.089844 9.144532-9.140625 9.144532h-109.714844v18.285156h124.214844zm0 0"/><path d="m182.855469 192c0 5.050781 4.09375 9.144531 9.144531 9.144531h128c5.050781 0 9.144531-4.09375 9.144531-9.144531s-4.09375-9.144531-9.144531-9.144531h-128c-5.050781 0-9.144531 4.09375-9.144531 9.144531zm0 0"/><path d="m192 164.570312v-36.570312h-118.855469v310.855469h73.140625v-64c.027344-.5.09375-1 .203125-1.488281 0-.230469 0-.449219.089844-.675782.25-.976562.660156-1.902344 1.214844-2.742187.136719-.210938.3125-.386719.457031-.585938.546875-.699219 1.1875-1.316406 1.914062-1.828125.136719-.101562.207032-.25.34375-.339844l96.347657-61.359374v-31.082032c-2.128907-1.210937-3.996094-2.835937-5.484375-4.785156l-20.113282-26.769531c-1.1875-1.582031-1.828124-3.507813-1.828124-5.484375v-18.285156h-27.429688c-15.148438 0-27.429688-12.28125-27.429688-27.429688s12.28125-27.429688 27.429688-27.429688zm0 0"/><path d="m347.429688 192c0 15.148438-12.28125 27.429688-27.429688 27.429688h-27.429688v18.285156c0 1.976562-.640624 3.902344-1.828124 5.484375l-20.113282 26.816406c-1.488281 1.945313-3.355468 3.570313-5.484375 4.773437v31.085938l96.335938 61.300781c.148437.09375.210937.238281.347656.339844.722656.511719 1.367187 1.128906 1.910156 1.828125.15625.203125.332031.375.457031.585938.554688.839843.964844 1.765624 1.21875 2.742187.054688.21875.054688.449219.089844.675781.113282.496094.183594 1 .210938 1.507813v64h73.140625v-310.855469h-118.855469v36.570312c15.148438 0 27.429688 12.28125 27.429688 27.429688zm0 0"/><path d="m146.285156 457.144531h-78.5l-54.855468 54.855469h211.671874l-74.054687-47.140625c-2.648437-1.671875-4.257813-4.585937-4.261719-7.714844zm0 0"/><path d="m365.714844 457.144531c0 3.125-1.597656 6.035157-4.234375 7.714844l-74.082031 47.140625h211.671874l-54.855468-54.855469zm0 0"/><path d="m192 109.714844v-18.285156h-109.714844c-5.050781 0-9.140625-4.09375-9.140625-9.144532 0-5.050781 4.089844-9.140625 9.140625-9.140625h109.714844v-18.289062h-179.070312l54.855468 54.859375zm0 0"/><path d="m347.429688 391.515625-82.285157 52.359375v60.609375l82.285157-52.359375zm0 0"/><path d="m457.144531 122.640625v321.574219l54.855469 54.855468v-431.285156zm0 0"/><path d="m54.855469 122.640625-54.855469-54.855469v431.285156l54.855469-54.855468zm0 0"/><path d="m164.570312 452.125 82.285157 52.359375v-60.609375l-82.285157-52.359375zm0 0"/><path d="m256 321.699219-83.539062 53.15625 83.539062 53.160156 83.539062-53.160156zm0 0"/></svg>