<?xml version="1.0" encoding="iso-8859-1"?>
<!-- Generator: Adobe Illustrator 19.0.0, SVG Export Plug-In . SVG Version: 6.00 Build 0)  -->
<svg version="1.1" id="Layer_1" xmlns="http://www.w3.org/2000/svg" xmlns:xlink="http://www.w3.org/1999/xlink" x="0px" y="0px"
	 viewBox="0 0 512 512" style="enable-background:new 0 0 512 512;" xml:space="preserve">
<g>
	<g>
		<g>
			<path d="M266.665,53.335c0-5.889-4.775-10.667-10.667-10.667c-68,0-127.435,45.906-144.533,111.635
				c-1.484,5.702,1.936,11.525,7.637,13.008c0.901,0.236,1.803,0.346,2.692,0.346c4.739,0,9.067-3.181,10.316-7.983
				c14.655-56.331,65.599-95.673,123.888-95.673C261.89,64.002,266.665,59.227,266.665,53.335z"/>
			<path d="M117.938,175.135c-5.855-0.267-10.867,4.302-11.126,10.188c-0.098,2.21-0.147,4.459-0.147,6.679
				c0,5.891,4.776,10.667,10.667,10.667c5.891,0,10.667-4.776,10.667-10.667c0-1.908,0.043-3.84,0.126-5.74
				C128.384,180.378,123.823,175.396,117.938,175.135z"/>
			<path d="M392.894,216.69c-5.71-1.489-11.527,1.935-13.008,7.637c-14.652,56.334-65.596,95.677-123.887,95.677
				c-5.89,0-10.667,4.774-10.667,10.667c0,5.889,4.777,10.667,10.667,10.667c68.002,0,127.437-45.908,144.532-111.639
				C402.015,223.996,398.595,218.171,392.894,216.69z"/>
			<path d="M394.06,208.867c0.16,0.006,0.32,0.011,0.478,0.011c5.675,0,10.396-4.473,10.647-10.198
				c0.098-2.21,0.147-4.459,0.147-6.677c0-5.889-4.775-10.667-10.667-10.667c-5.89,0-10.667,4.778-10.667,10.667
				c0,1.908-0.043,3.838-0.126,5.738C383.614,203.625,388.175,208.606,394.06,208.867z"/>
			<path d="M295.428,260.383c0.89-0.682,1.336-2.052,1.336-4.107v-13.141c0-3.558-1.985-5.338-5.956-5.338h-15.196V136.764
				c0-9.45-4.588-14.171-13.758-14.171h-1.644v0.001c-5.34,0-11.296,1.366-17.867,4.107l-24.027,9.652
				c-2.052,0.958-3.082,2.26-3.082,3.902c0,1.371,1.576,6.435,4.725,15.196c0.686,1.917,1.919,2.872,3.698,2.872
				c1.506,0,3.079-0.339,4.723-1.025l19.506-7.392v87.891h-19.506c-3.971,0-5.956,1.779-5.956,5.338v12.732
				c0,3.698,1.985,5.546,5.956,5.546h62.631C293.066,261.412,294.539,261.069,295.428,260.383z"/>
			<path d="M457.237,427.731L396.56,322.64C428.455,288.346,448,242.415,448,191.998C448,86.131,361.869,0,256.001,0
				C150.132,0,64.002,86.131,64.002,191.998c0,50.417,19.542,96.346,51.437,130.64L54.763,427.731
				c-2.157,3.738-1.851,8.404,0.775,11.827c2.626,3.423,7.056,4.921,11.222,3.81l82.953-22.225l22.227,82.95
				c1.117,4.169,4.637,7.254,8.915,7.814c0.466,0.063,0.929,0.092,1.391,0.092c3.777,0,7.318-2.009,9.238-5.342l64.453-111.852
				l64.581,111.86c1.922,3.327,5.46,5.333,9.234,5.333c0.463,0,0.928-0.031,1.396-0.092c4.277-0.562,7.794-3.648,8.911-7.814
				l22.227-82.95l82.953,22.225c4.162,1.115,8.595-0.387,11.223-3.81C459.088,436.135,459.394,431.469,457.237,427.731z
				 M185.873,473.669l-18.315-68.35c-1.524-5.69-7.376-9.069-13.063-7.541l-68.382,18.321l45.173-78.243
				c29.298,25.088,66.212,41.515,106.746,45.296L185.873,473.669z M85.335,191.998c0-94.105,76.561-170.665,170.666-170.665
				c94.106,0,170.665,76.56,170.665,170.665c0,94.107-76.559,170.667-170.665,170.667S85.335,286.105,85.335,191.998z
				 M357.505,397.777c-5.694-1.523-11.538,1.852-13.064,7.541l-18.323,68.379l-52.271-90.538
				c40.581-3.758,77.537-20.194,106.865-45.305l45.174,78.242L357.505,397.777z"/>
		</g>
	</g>
</g>
<g>
</g>
<g>
</g>
<g>
</g>
<g>
</g>
<g>
</g>
<g>
</g>
<g>
</g>
<g>
</g>
<g>
</g>
<g>
</g>
<g>
</g>
<g>
</g>
<g>
</g>
<g>
</g>
<g>
</g>
</svg>
